HIERARCHY
ROOT Hips
{
	OFFSET 0.053599 88.859886 3.107447
	CHANNELS 6 Xposition Yposition Zposition Zrotation Yrotation Xrotation 
	JOINT Spine
	{
		OFFSET -0.000000 8.814246 -2.080107
		CHANNELS 3 Zrotation Yrotation Xrotation
		JOINT Spine1
		{
			OFFSET 0.000000 8.844141 0.000000
			CHANNELS 3 Zrotation Yrotation Xrotation
			JOINT Spine2
			{
				OFFSET -0.000000 11.682268 0.000000
				CHANNELS 3 Zrotation Yrotation Xrotation
				JOINT Spine3
				{
					OFFSET 0.000000 11.746700 0.000000
					CHANNELS 3 Zrotation Yrotation Xrotation
					JOINT Neck
					{
						OFFSET -0.000000 17.658264 -0.000000
						CHANNELS 3 Zrotation Yrotation Xrotation
						JOINT Neck1
						{
							OFFSET -0.000000 5.101515 -0.000000
							CHANNELS 3 Zrotation Yrotation Xrotation
							JOINT Head
							{
								OFFSET 0.000000 5.101515 0.000000
								CHANNELS 3 Zrotation Yrotation Xrotation
								JOINT HeadEnd
								{
									OFFSET 0.000000 11.655085 0.000000
									CHANNELS 3 Zrotation Yrotation Xrotation
									End Site
									{
										OFFSET 0.000000 0.000000 0.000000
									}
								}
							}
						}
					}
					JOINT RightShoulder
					{
						OFFSET -2.625389 11.175210 0.000000
						CHANNELS 3 Zrotation Yrotation Xrotation
						JOINT RightArm
						{
							OFFSET -0.000000 10.434715 -0.000000
							CHANNELS 3 Zrotation Yrotation Xrotation
							JOINT RightForeArm
							{
								OFFSET -0.000000 29.628420 0.000000
								CHANNELS 3 Zrotation Yrotation Xrotation
								JOINT RightHand
								{
									OFFSET -0.000000 22.857611 0.000000
									CHANNELS 3 Zrotation Yrotation Xrotation
									JOINT RightHandThumb1
									{
										OFFSET -2.867323 3.959563 2.944291
										CHANNELS 3 Zrotation Yrotation Xrotation
										JOINT RightHandThumb2
										{
											OFFSET 0.000000 3.350399 0.000000
											CHANNELS 3 Zrotation Yrotation Xrotation
											JOINT RightHandThumb3
											{
												OFFSET 0.000000 3.756509 -0.000000
												CHANNELS 3 Zrotation Yrotation Xrotation
												JOINT RightHandThumb4
												{
													OFFSET 0.000000 3.147345 0.000000
													CHANNELS 3 Zrotation Yrotation Xrotation
													End Site
													{
														OFFSET 0.000000 0.000000 0.000000
													}
												}
											}
										}
									}
									JOINT RightHandIndex1
									{
										OFFSET -0.086752 10.030893 2.345280
										CHANNELS 3 Zrotation Yrotation Xrotation
										JOINT RightHandIndex2
										{
											OFFSET -0.000000 4.061090 0.000000
											CHANNELS 3 Zrotation Yrotation Xrotation
											JOINT RightHandIndex3
											{
												OFFSET -0.000000 3.248873 0.000000
												CHANNELS 3 Zrotation Yrotation Xrotation
												JOINT RightHandIndex4
												{
													OFFSET 0.000000 2.639709 -0.000000
													CHANNELS 3 Zrotation Yrotation Xrotation
													End Site
													{
														OFFSET 0.000000 0.000000 0.000000
													}
												}
											}
										}
									}
									JOINT RightHandMiddle1
									{
										OFFSET 0.104102 9.502952 0.006768
										CHANNELS 3 Zrotation Yrotation Xrotation
										JOINT RightHandMiddle2
										{
											OFFSET 0.000000 4.568727 0.000000
											CHANNELS 3 Zrotation Yrotation Xrotation
											JOINT RightHandMiddle3
											{
												OFFSET 0.000000 3.654981 -0.000000
												CHANNELS 3 Zrotation Yrotation Xrotation
												JOINT RightHandMiddle4
												{
													OFFSET -0.000000 2.741236 -0.000000
													CHANNELS 3 Zrotation Yrotation Xrotation
													End Site
													{
														OFFSET 0.000000 0.000000 0.000000
													}
												}
											}
										}
									}
									JOINT RightHandRing1
									{
										OFFSET 0.086752 8.921708 -2.267442
										CHANNELS 3 Zrotation Yrotation Xrotation
										JOINT RightHandRing2
										{
											OFFSET -0.000000 4.061090 0.000000
											CHANNELS 3 Zrotation Yrotation Xrotation
											JOINT RightHandRing3
											{
												OFFSET 0.000000 3.654981 -0.000000
												CHANNELS 3 Zrotation Yrotation Xrotation
												JOINT RightHandRing4
												{
													OFFSET 0.000000 2.741236 -0.000000
													CHANNELS 3 Zrotation Yrotation Xrotation
													End Site
													{
														OFFSET 0.000000 0.000000 0.000000
													}
												}
											}
										}
									}
									JOINT RightHandPinky1
									{
										OFFSET -0.173504 7.976997 -4.467199
										CHANNELS 3 Zrotation Yrotation Xrotation
										JOINT RightHandPinky2
										{
											OFFSET 0.000000 3.350399 -0.000000
											CHANNELS 3 Zrotation Yrotation Xrotation
											JOINT RightHandPinky3
											{
												OFFSET -0.000000 2.842763 0.000000
												CHANNELS 3 Zrotation Yrotation Xrotation
												JOINT RightHandPinky4
												{
													OFFSET -0.000000 2.639709 0.000000
													CHANNELS 3 Zrotation Yrotation Xrotation
													End Site
													{
														OFFSET 0.000000 0.000000 0.000000
													}
												}
											}
										}
									}
									JOINT RightForeArmEnd
									{
										OFFSET 0.000000 0.000000 0.000000
										CHANNELS 3 Zrotation Yrotation Xrotation
										End Site
										{
											OFFSET 0.000000 0.000000 0.000000
										}
									}
								}
								JOINT RightArmEnd
								{
									OFFSET 0.000000 0.000000 0.000000
									CHANNELS 3 Zrotation Yrotation Xrotation
									End Site
									{
										OFFSET 0.000000 0.000000 0.000000
									}
								}
							}
						}
					}
					JOINT LeftShoulder
					{
						OFFSET 2.625389 11.175210 0.000000
						CHANNELS 3 Zrotation Yrotation Xrotation
						JOINT LeftArm
						{
							OFFSET 0.000000 10.813635 -0.000000
							CHANNELS 3 Zrotation Yrotation Xrotation
							JOINT LeftForeArm
							{
								OFFSET 0.000000 28.724781 0.000000
								CHANNELS 3 Zrotation Yrotation Xrotation
								JOINT LeftHand
								{
									OFFSET 0.644384 25.716167 -0.328871
									CHANNELS 3 Zrotation Yrotation Xrotation
									JOINT LeftHandThumb1
									{
										OFFSET 2.867323 3.959563 2.944291
										CHANNELS 3 Zrotation Yrotation Xrotation
										JOINT LeftHandThumb2
										{
											OFFSET 0.000000 3.350399 0.000000
											CHANNELS 3 Zrotation Yrotation Xrotation
											JOINT LeftHandThumb3
											{
												OFFSET -0.000000 3.756509 0.000000
												CHANNELS 3 Zrotation Yrotation Xrotation
												JOINT LeftHandThumb4
												{
													OFFSET -0.000000 3.100000 0.000000
													CHANNELS 3 Zrotation Yrotation Xrotation
													End Site
													{
														OFFSET 0.000000 0.000000 0.000000
													}
												}
											}
										}
									}
									JOINT LeftHandIndex1
									{
										OFFSET 0.086752 10.030893 2.345280
										CHANNELS 3 Zrotation Yrotation Xrotation
										JOINT LeftHandIndex2
										{
											OFFSET -0.000000 4.061090 -0.000000
											CHANNELS 3 Zrotation Yrotation Xrotation
											JOINT LeftHandIndex3
											{
												OFFSET 0.000000 3.248873 -0.000000
												CHANNELS 3 Zrotation Yrotation Xrotation
												JOINT LeftHandIndex4
												{
													OFFSET 0.000000 2.639709 -0.000000
													CHANNELS 3 Zrotation Yrotation Xrotation
													End Site
													{
														OFFSET 0.000000 0.000000 0.000000
													}
												}
											}
										}
									}
									JOINT LeftHandMiddle1
									{
										OFFSET -0.104102 9.502952 0.006768
										CHANNELS 3 Zrotation Yrotation Xrotation
										JOINT LeftHandMiddle2
										{
											OFFSET -0.000000 4.568727 -0.000000
											CHANNELS 3 Zrotation Yrotation Xrotation
											JOINT LeftHandMiddle3
											{
												OFFSET 0.000000 3.654981 0.000000
												CHANNELS 3 Zrotation Yrotation Xrotation
												JOINT LeftHandMiddle4
												{
													OFFSET 0.000000 2.741236 -0.000000
													CHANNELS 3 Zrotation Yrotation Xrotation
													End Site
													{
														OFFSET 0.000000 0.000000 0.000000
													}
												}
											}
										}
									}
									JOINT LeftHandRing1
									{
										OFFSET -0.086752 8.921708 -2.267442
										CHANNELS 3 Zrotation Yrotation Xrotation
										JOINT LeftHandRing2
										{
											OFFSET 0.000000 4.061090 0.000000
											CHANNELS 3 Zrotation Yrotation Xrotation
											JOINT LeftHandRing3
											{
												OFFSET 0.000000 3.654981 0.000000
												CHANNELS 3 Zrotation Yrotation Xrotation
												JOINT LeftHandRing4
												{
													OFFSET 0.000000 2.741236 0.000000
													CHANNELS 3 Zrotation Yrotation Xrotation
													End Site
													{
														OFFSET 0.000000 0.000000 0.000000
													}
												}
											}
										}
									}
									JOINT LeftHandPinky1
									{
										OFFSET 0.173504 7.976997 -4.467199
										CHANNELS 3 Zrotation Yrotation Xrotation
										JOINT LeftHandPinky2
										{
											OFFSET -0.000000 3.350399 -0.000000
											CHANNELS 3 Zrotation Yrotation Xrotation
											JOINT LeftHandPinky3
											{
												OFFSET 0.000000 2.842763 0.000000
												CHANNELS 3 Zrotation Yrotation Xrotation
												JOINT LeftHandPinky4
												{
													OFFSET -0.000000 2.639709 -0.000000
													CHANNELS 3 Zrotation Yrotation Xrotation
													End Site
													{
														OFFSET 0.000000 0.000000 0.000000
													}
												}
											}
										}
									}
									JOINT LeftForeArmEnd
									{
										OFFSET 0.000000 0.000000 0.000000
										CHANNELS 3 Zrotation Yrotation Xrotation
										End Site
										{
											OFFSET 0.000000 0.000000 0.000000
										}
									}
								}
								JOINT LeftArmEnd
								{
									OFFSET 0.000000 0.000000 0.000000
									CHANNELS 3 Zrotation Yrotation Xrotation
									End Site
									{
										OFFSET 0.000000 0.000000 0.000000
									}
								}
							}
						}
					}
				}
			}
		}
	}
	JOINT RightUpLeg
	{
		OFFSET -11.289943 0.000000 0.000000
		CHANNELS 3 Zrotation Yrotation Xrotation
		JOINT RightLeg
		{
			OFFSET 0.000000 -38.200325 0.000000
			CHANNELS 3 Zrotation Yrotation Xrotation
			JOINT RightFoot
			{
				OFFSET -0.000000 -39.900856 -0.000000
				CHANNELS 3 Zrotation Yrotation Xrotation
				JOINT RightToeBase
				{
					OFFSET 0.000000 0.000000 15.261641
					CHANNELS 3 Zrotation Yrotation Xrotation
					JOINT RightToeBaseEnd
					{
						OFFSET 0.000000 0.000000 7.370709
						CHANNELS 3 Zrotation Yrotation Xrotation
						End Site
						{
							OFFSET 0.000000 0.000000 0.000000
						}
					}
				}
				JOINT RightLegEnd
				{
					OFFSET 0.000000 0.000000 0.000000
					CHANNELS 3 Zrotation Yrotation Xrotation
					End Site
					{
						OFFSET 0.000000 0.000000 0.000000
					}
				}
			}
			JOINT RightUpLegEnd
			{
				OFFSET 0.000000 0.000000 0.000000
				CHANNELS 3 Zrotation Yrotation Xrotation
				End Site
				{
					OFFSET 0.000000 0.000000 0.000000
				}
			}
		}
	}
	JOINT LeftUpLeg
	{
		OFFSET 11.315661 -0.000000 0.000000
		CHANNELS 3 Zrotation Yrotation Xrotation
		JOINT LeftLeg
		{
			OFFSET -0.000000 -38.200325 -0.000000
			CHANNELS 3 Zrotation Yrotation Xrotation
			JOINT LeftFoot
			{
				OFFSET 0.000000 -39.900856 -0.000000
				CHANNELS 3 Zrotation Yrotation Xrotation
				JOINT LeftToeBase
				{
					OFFSET -0.000000 -0.000000 15.261641
					CHANNELS 3 Zrotation Yrotation Xrotation
					JOINT LeftToeBaseEnd
					{
						OFFSET 0.000000 -0.000000 7.539996
						CHANNELS 3 Zrotation Yrotation Xrotation
						End Site
						{
							OFFSET 0.000000 0.000000 0.000000
						}
					}
				}
				JOINT LeftLegEnd
				{
					OFFSET 0.000000 0.000000 0.000000
					CHANNELS 3 Zrotation Yrotation Xrotation
					End Site
					{
						OFFSET 0.000000 0.000000 0.000000
					}
				}
			}
			JOINT LeftUpLegEnd
			{
				OFFSET 0.000000 0.000000 0.000000
				CHANNELS 3 Zrotation Yrotation Xrotation
				End Site
				{
					OFFSET 0.000000 0.000000 0.000000
				}
			}
		}
	}
}
MOTION
Frames: 4
Frame Time: 0.016667
0.058084 88.701721 3.867332 -0.330182 -1.873414 -12.225804 1.176516 0.120961 7.451455 -1.100257 0.349342 2.179295 0.230343 -0.744328 6.454479 -1.533248 0.149113 4.560276 1.163148 0.151140 4.901616 0.454973 0.758770 -3.288795 -0.337371 -1.103939 -20.476736 0.000000 0.000000 0.000000 92.964912 -0.443813 9.782056 65.562508 -27.241333 3.134722 -0.093771 17.628883 38.003540 6.933517 12.795817 -6.501849 19.761726 30.123564 62.119602 -8.403844 -12.026723 -20.318848 -6.206920 -7.930836 -14.038510 0.000000 0.000000 0.000000 12.334909 -10.919368 2.109133 10.118672 0.325014 1.399318 9.970293 -0.101930 1.346782 0.000000 0.000000 0.000000 11.771489 -5.436700 0.401294 8.782978 0.435982 0.555542 9.363679 -0.059561 0.472096 0.000000 0.000000 0.000000 12.796208 2.163932 -0.850690 9.403817 -0.908686 -0.843076 9.556883 0.060870 -0.602578 0.000000 0.000000 0.000000 12.017029 10.673376 -3.038460 9.442456 -1.669870 -2.389941 9.385600 0.252325 -2.043084 0.000000 0.000000 0.000000 0.000000 0.000000 0.000000 0.000000 0.000000 0.000000 -90.138695 0.542892 4.998781 -71.831512 18.798346 -6.567031 -0.130128 -13.328873 63.652885 -9.686650 -11.336285 -10.976512 -20.131847 -30.027197 61.594807 8.828671 12.899267 -21.647284 6.583174 8.633185 -15.090183 0.000000 0.000000 0.000000 -19.643040 -5.174738 4.135395 -12.133485 0.358290 -1.146912 -11.877920 -0.118922 -1.098066 0.000000 0.000000 0.000000 -18.681429 -0.187574 1.489168 -11.911366 0.433858 -0.544354 -12.065334 -0.061578 -0.440408 0.000000 0.000000 0.000000 -21.785000 7.944770 -1.538859 -13.815137 -0.875221 0.853959 -13.867479 0.091972 0.656350 0.000000 0.000000 0.000000 -24.252872 16.449003 -5.228772 -15.004971 -1.550688 2.776620 -14.756568 0.424378 2.444440 0.000000 0.000000 0.000000 0.000000 0.000000 0.000000 0.000000 0.000000 0.000000 -1.037159 -10.069331 16.818874 -0.066324 -0.727439 4.664706 -2.683579 -7.418815 17.131638 -0.925646 0.932643 -18.322292 0.000000 0.000000 0.000000 0.000000 0.000000 0.000000 0.000000 0.000000 0.000000 -1.082420 -6.185638 11.073460 0.064402 0.316623 11.218396 3.346832 -0.745231 15.599188 0.269320 -0.397598 -20.583776 0.000000 0.000000 0.000000 0.000000 0.000000 0.000000 0.000000 0.000000 0.000000 
0.065746 88.700027 3.871122 -0.315317 -1.847229 -12.261024 1.149674 0.125133 7.438280 -1.109288 0.350144 2.164719 0.220382 -0.722882 6.526190 -1.551446 0.150481 4.606875 1.184589 0.095061 4.874004 0.421278 0.684681 -3.336159 -0.320694 -1.081954 -20.590187 0.000000 0.000000 0.000000 92.893105 -0.427545 9.653234 65.628098 -26.571980 2.855221 -0.123875 17.974602 40.277195 6.923514 13.331297 -6.070271 19.769016 30.122635 62.100140 -8.415145 -12.061956 -20.363077 -6.215526 -7.947059 -14.067780 0.000000 0.000000 0.000000 12.325587 -10.929244 2.361606 10.187151 0.322229 1.403226 10.046230 -0.103823 1.349360 0.000000 0.000000 0.000000 11.803335 -5.447398 0.582363 8.863255 0.434427 0.557649 9.459463 -0.060367 0.472658 0.000000 0.000000 0.000000 12.856681 2.147967 -0.879466 9.498004 -0.907776 -0.846941 9.674098 0.061460 -0.606452 0.000000 0.000000 0.000000 12.071036 10.659882 -3.249581 9.552387 -1.665049 -2.397293 9.508834 0.256672 -2.049273 0.000000 0.000000 0.000000 0.000000 0.000000 0.000000 0.000000 0.000000 0.000000 -90.055237 0.549180 4.890270 -71.963974 18.259048 -6.781619 -0.104901 -13.744294 64.807007 -10.438679 -12.104228 -10.589536 -20.157066 -30.024229 61.574009 8.838525 12.954383 -21.720066 6.596705 8.670151 -15.135958 0.000000 0.000000 0.000000 -19.786272 -5.169497 4.352669 -12.296361 0.365612 -1.103123 -12.040209 -0.113058 -1.061410 0.000000 0.000000 0.000000 -18.817411 -0.165261 1.640836 -12.098971 0.436619 -0.531116 -12.260098 -0.059530 -0.429280 0.000000 0.000000 0.000000 -21.990509 7.984148 -1.512156 -14.036854 -0.877266 0.839469 -14.113357 0.090138 0.644925 0.000000 0.000000 0.000000 -24.564859 16.479343 -5.325287 -15.245933 -1.552316 2.750298 -15.008851 0.422133 2.418673 0.000000 0.000000 0.000000 0.000000 0.000000 0.000000 0.000000 0.000000 0.000000 -1.104020 -10.046969 16.838282 -0.067603 -0.730449 4.686488 -2.650044 -7.381431 17.137138 -0.925726 0.938387 -18.343225 0.000000 0.000000 0.000000 0.000000 0.000000 0.000000 0.000000 0.000000 0.000000 -1.083800 -6.160674 11.085928 0.065237 0.318114 11.241748 3.337995 -0.747803 15.626025 0.268429 -0.398740 -20.607365 0.000000 0.000000 0.000000 0.000000 0.000000 0.000000 0.000000 0.000000 0.000000 
0.071733 88.698792 3.873041 -0.298430 -1.823508 -12.287118 1.125353 0.131339 7.418132 -1.122028 0.354194 2.156531 0.218382 -0.687234 6.582620 -1.573268 0.159642 4.654435 1.197138 0.041524 4.852026 0.384615 0.606246 -3.375868 -0.300652 -1.060231 -20.698050 0.000000 0.000000 0.000000 92.795448 -0.409058 9.528401 65.708580 -25.838055 2.552088 -0.154597 18.299690 42.663502 6.943434 13.891786 -5.607562 19.772100 30.122820 62.086620 -8.421026 -12.085752 -20.390432 -6.219739 -7.956037 -14.085382 0.000000 0.000000 0.000000 12.251909 -10.929032 2.644985 10.223298 0.322864 1.394111 10.087788 -0.102578 1.339619 0.000000 0.000000 0.000000 11.780662 -5.450507 0.773792 8.913248 0.434573 0.554558 9.529177 -0.059863 0.468552 0.000000 0.000000 0.000000 12.887345 2.139425 -0.923614 9.579806 -0.909226 -0.843355 9.781752 0.060294 -0.604286 0.000000 0.000000 0.000000 12.098373 10.658472 -3.501204 9.663093 -1.666350 -2.383541 9.632954 0.256060 -2.038006 0.000000 0.000000 0.000000 0.000000 0.000000 0.000000 0.000000 0.000000 0.000000 -89.958221 0.547381 4.772157 -72.068039 17.621807 -6.977171 -0.080985 -14.161993 66.054001 -11.294576 -12.968845 -10.142800 -20.166405 -30.024557 61.568306 8.836009 12.975672 -21.744331 6.599394 8.685207 -15.149415 0.000000 0.000000 0.000000 -19.819990 -5.184900 4.646699 -12.404382 0.377738 -1.040858 -12.147505 -0.102450 -1.007868 0.000000 0.000000 0.000000 -18.852592 -0.158811 1.838550 -12.237273 0.441381 -0.510583 -12.405560 -0.055570 -0.411728 0.000000 0.000000 0.000000 -22.138628 8.012198 -1.466823 -14.230804 -0.882396 0.816364 -14.334425 0.085877 0.626689 0.000000 0.000000 0.000000 -24.862522 16.502178 -5.440124 -15.485512 -1.561486 2.703076 -15.255936 0.413611 2.374264 0.000000 0.000000 0.000000 0.000000 0.000000 0.000000 0.000000 0.000000 0.000000 -1.169838 -10.022041 16.835968 -0.068724 -0.732230 4.719880 -2.613691 -7.333745 17.144657 -0.925726 0.943150 -18.368380 0.000000 0.000000 0.000000 0.000000 0.000000 0.000000 0.000000 0.000000 0.000000 -1.089958 -6.130563 11.084069 0.066133 0.319208 11.274698 3.329094 -0.751280 15.653753 0.267679 -0.400105 -20.632839 0.000000 0.000000 0.000000 0.000000 0.000000 0.000000 0.000000 0.000000 0.000000 
0.077155 88.698891 3.872783 -0.279009 -1.799873 -12.299614 1.104042 0.139656 7.389817 -1.138586 0.361807 2.151624 0.224621 -0.637215 6.622836 -1.600369 0.177786 4.701886 1.188554 -0.003812 4.847054 0.344118 0.525858 -3.404070 -0.277867 -1.039812 -20.801191 0.000000 0.000000 0.000000 92.668274 -0.388396 9.408751 65.799698 -25.034958 2.213925 -0.185060 18.589401 45.141689 6.978249 14.499818 -5.111964 19.767387 30.125483 62.083466 -8.416340 -12.090842 -20.388113 -6.216117 -7.952980 -14.082698 0.000000 0.000000 0.000000 12.090232 -10.916485 2.980648 10.213362 0.328214 1.369128 10.079482 -0.096983 1.315015 0.000000 0.000000 0.000000 11.682624 -5.443110 0.994230 8.916811 0.436963 0.544983 9.555755 -0.057642 0.458723 0.000000 0.000000 0.000000 12.875681 2.141853 -0.962720 9.632316 -0.913747 -0.830861 9.862344 0.056857 -0.594958 0.000000 0.000000 0.000000 12.089399 10.673376 -3.775898 9.761196 -1.675995 -2.345192 9.744174 0.248851 -2.006165 0.000000 0.000000 0.000000 0.000000 0.000000 0.000000 0.000000 0.000000 0.000000 -89.846245 0.535606 4.644739 -72.135284 16.879349 -7.145771 -0.060892 -14.583242 67.410797 -12.289560 -13.927386 -9.584633 -20.149712 -30.031185 61.587547 8.811707 12.943181 -21.690418 6.583069 8.664719 -15.109287 0.000000 0.000000 0.000000 -19.688749 -5.231193 5.040375 -12.417706 0.395043 -0.960709 -12.161630 -0.086713 -0.938120 0.000000 0.000000 0.000000 -18.737949 -0.177465 2.098394 -12.285987 0.448315 -0.482873 -12.463261 -0.049592 -0.387857 0.000000 0.000000 0.000000 -22.185284 8.022111 -1.393872 -14.360742 -0.890967 0.784876 -14.493473 0.078965 0.601797 0.000000 0.000000 0.000000 -25.110739 16.514038 -5.570499 -15.695148 -1.579344 2.636024 -15.469275 0.397997 2.312624 0.000000 0.000000 0.000000 0.000000 0.000000 0.000000 0.000000 0.000000 0.000000 -1.233330 -9.993927 16.810135 -0.069532 -0.732375 4.760605 -2.574954 -7.282656 17.155621 -0.925734 0.946349 -18.397181 0.000000 0.000000 0.000000 0.000000 0.000000 0.000000 0.000000 0.000000 0.000000 -1.102896 -6.097372 11.066355 0.067003 0.320232 11.313876 3.321211 -0.756282 15.682672 0.266941 -0.401757 -20.658035 0.000000 0.000000 0.000000 0.000000 0.000000 0.000000 0.000000 0.000000 0.000000 
